%TF.GenerationSoftware,KiCad,Pcbnew,(6.0.9-0)*%
%TF.CreationDate,2022-11-15T00:11:16+01:00*%
%TF.ProjectId,DS_Straight,44535f53-7472-4616-9967-68742e6b6963,rev?*%
%TF.SameCoordinates,Original*%
%TF.FileFunction,Legend,Top*%
%TF.FilePolarity,Positive*%
%FSLAX46Y46*%
G04 Gerber Fmt 4.6, Leading zero omitted, Abs format (unit mm)*
G04 Created by KiCad (PCBNEW (6.0.9-0)) date 2022-11-15 00:11:16*
%MOMM*%
%LPD*%
G01*
G04 APERTURE LIST*
%TA.AperFunction,Profile*%
%ADD10C,0.100000*%
%TD*%
%ADD11C,0.150000*%
%ADD12C,0.120000*%
G04 APERTURE END LIST*
D10*
X89300000Y-75700000D02*
X119300000Y-75700000D01*
X119300000Y-75700000D02*
X119300000Y-105700000D01*
X119300000Y-105700000D02*
X89300000Y-105700000D01*
X89300000Y-105700000D02*
X89300000Y-75700000D01*
D11*
%TO.C,J2*%
X111666666Y-85452380D02*
X111666666Y-86166666D01*
X111619047Y-86309523D01*
X111523809Y-86404761D01*
X111380952Y-86452380D01*
X111285714Y-86452380D01*
X112095238Y-85547619D02*
X112142857Y-85500000D01*
X112238095Y-85452380D01*
X112476190Y-85452380D01*
X112571428Y-85500000D01*
X112619047Y-85547619D01*
X112666666Y-85642857D01*
X112666666Y-85738095D01*
X112619047Y-85880952D01*
X112047619Y-86452380D01*
X112666666Y-86452380D01*
%TO.C,U1*%
X99013095Y-90202380D02*
X99013095Y-91011904D01*
X99060714Y-91107142D01*
X99108333Y-91154761D01*
X99203571Y-91202380D01*
X99394047Y-91202380D01*
X99489285Y-91154761D01*
X99536904Y-91107142D01*
X99584523Y-91011904D01*
X99584523Y-90202380D01*
X100584523Y-91202380D02*
X100013095Y-91202380D01*
X100298809Y-91202380D02*
X100298809Y-90202380D01*
X100203571Y-90345238D01*
X100108333Y-90440476D01*
X100013095Y-90488095D01*
%TO.C,J1*%
X95666666Y-94452380D02*
X95666666Y-95166666D01*
X95619047Y-95309523D01*
X95523809Y-95404761D01*
X95380952Y-95452380D01*
X95285714Y-95452380D01*
X96666666Y-95452380D02*
X96095238Y-95452380D01*
X96380952Y-95452380D02*
X96380952Y-94452380D01*
X96285714Y-94595238D01*
X96190476Y-94690476D01*
X96095238Y-94738095D01*
D12*
%TO.C,J2*%
X103025000Y-81769000D02*
X103271000Y-81523000D01*
X111860000Y-84810000D02*
X96740000Y-84810000D01*
X108050000Y-84750000D02*
X108050000Y-83750000D01*
X112100000Y-77190000D02*
X112100000Y-76350000D01*
X98025000Y-81769000D02*
X98271000Y-81523000D01*
X111860000Y-77250000D02*
X96740000Y-77250000D01*
X105328000Y-79877000D02*
X105574000Y-79631000D01*
X96740000Y-84810000D02*
X96740000Y-76590000D01*
X110550000Y-83750000D02*
X108050000Y-83750000D01*
X110550000Y-84750000D02*
X108050000Y-84750000D01*
X100550000Y-83750000D02*
X98050000Y-83750000D01*
X111860000Y-77850000D02*
X96740000Y-77850000D01*
X100550000Y-84750000D02*
X100550000Y-83750000D01*
X110550000Y-84750000D02*
X110550000Y-83750000D01*
X105550000Y-84750000D02*
X103050000Y-84750000D01*
X100170000Y-79625000D02*
X100369000Y-79426000D01*
X100550000Y-84750000D02*
X98050000Y-84750000D01*
X112100000Y-76350000D02*
X111500000Y-76350000D01*
X105550000Y-84750000D02*
X105550000Y-83750000D01*
X111860000Y-84810000D02*
X111860000Y-76590000D01*
X111860000Y-82750000D02*
X96740000Y-82750000D01*
X98050000Y-84750000D02*
X98050000Y-83750000D01*
X100328000Y-79877000D02*
X100574000Y-79631000D01*
X98230000Y-81975000D02*
X98441000Y-81764000D01*
X105550000Y-83750000D02*
X103050000Y-83750000D01*
X111860000Y-76590000D02*
X96740000Y-76590000D01*
X103050000Y-84750000D02*
X103050000Y-83750000D01*
X105170000Y-79625000D02*
X105369000Y-79426000D01*
X103230000Y-81975000D02*
X103441000Y-81764000D01*
X108220000Y-81987000D02*
G75*
G03*
X110379908Y-81987078I1080000J1287001D01*
G01*
X109300000Y-79020000D02*
G75*
G03*
X108220117Y-79413045I-2J-1679994D01*
G01*
X110381000Y-79413000D02*
G75*
G03*
X109271493Y-79019489I-1081000J-1287000D01*
G01*
X108013000Y-79620000D02*
G75*
G03*
X108012922Y-81779908I1287001J-1080000D01*
G01*
X110587000Y-81781000D02*
G75*
G03*
X110588062Y-79620266I-1287000J1081000D01*
G01*
X105980000Y-80700000D02*
G75*
G03*
X105980000Y-80700000I-1680000J0D01*
G01*
X100980000Y-80700000D02*
G75*
G03*
X100980000Y-80700000I-1680000J0D01*
G01*
%TO.C,U1*%
X102475000Y-92550000D02*
X106075000Y-92550000D01*
X106113478Y-92538478D02*
G75*
G03*
X104275000Y-88100000I-1838478J1838478D01*
G01*
X104275000Y-88099999D02*
G75*
G03*
X102436522Y-92538478I0J-2600001D01*
G01*
%TO.C,J1*%
X108430000Y-101775000D02*
X108231000Y-101974000D01*
X103050000Y-96650000D02*
X103050000Y-97650000D01*
X96740000Y-98650000D02*
X111860000Y-98650000D01*
X100550000Y-96650000D02*
X100550000Y-97650000D01*
X98050000Y-97650000D02*
X100550000Y-97650000D01*
X96740000Y-103550000D02*
X111860000Y-103550000D01*
X110370000Y-99425000D02*
X110159000Y-99636000D01*
X96500000Y-105050000D02*
X97100000Y-105050000D01*
X98050000Y-96650000D02*
X100550000Y-96650000D01*
X98050000Y-96650000D02*
X98050000Y-97650000D01*
X96500000Y-104210000D02*
X96500000Y-105050000D01*
X103050000Y-96650000D02*
X105550000Y-96650000D01*
X108050000Y-96650000D02*
X110550000Y-96650000D01*
X105550000Y-96650000D02*
X105550000Y-97650000D01*
X103430000Y-101775000D02*
X103231000Y-101974000D01*
X110575000Y-99631000D02*
X110329000Y-99877000D01*
X96740000Y-96590000D02*
X96740000Y-104810000D01*
X111860000Y-96590000D02*
X111860000Y-104810000D01*
X108050000Y-96650000D02*
X108050000Y-97650000D01*
X110550000Y-96650000D02*
X110550000Y-97650000D01*
X103050000Y-97650000D02*
X105550000Y-97650000D01*
X96740000Y-104150000D02*
X111860000Y-104150000D01*
X105575000Y-99631000D02*
X105329000Y-99877000D01*
X108050000Y-97650000D02*
X110550000Y-97650000D01*
X96740000Y-104810000D02*
X111860000Y-104810000D01*
X103272000Y-101523000D02*
X103026000Y-101769000D01*
X108272000Y-101523000D02*
X108026000Y-101769000D01*
X105370000Y-99425000D02*
X105159000Y-99636000D01*
X96740000Y-96590000D02*
X111860000Y-96590000D01*
X98219000Y-101987000D02*
G75*
G03*
X99328507Y-102380511I1081000J1287000D01*
G01*
X98013000Y-99619000D02*
G75*
G03*
X98011938Y-101779734I1287000J-1081000D01*
G01*
X100587000Y-101780000D02*
G75*
G03*
X100587078Y-99620092I-1287001J1080000D01*
G01*
X100380000Y-99413000D02*
G75*
G03*
X98220092Y-99412922I-1080000J-1287001D01*
G01*
X99300000Y-102380000D02*
G75*
G03*
X100379883Y-101986955I2J1679994D01*
G01*
X110980000Y-100700000D02*
G75*
G03*
X110980000Y-100700000I-1680000J0D01*
G01*
X105980000Y-100700000D02*
G75*
G03*
X105980000Y-100700000I-1680000J0D01*
G01*
%TD*%
M02*
